<?xml version="1.0" standalone="no"?>
<!DOCTYPE svg PUBLIC "-//W3C//DTD SVG 20010904//EN"
 "http://www.w3.org/TR/2001/REC-SVG-20010904/DTD/svg10.dtd">
<svg version="1.0" xmlns="http://www.w3.org/2000/svg"
 width="300.000000pt" height="265.000000pt" viewBox="0 0 300.000000 265.000000"
 preserveAspectRatio="xMidYMid meet">
<metadata>
Created by potrace 1.10, written by Peter Selinger 2001-2011
</metadata>
<g transform="translate(0.000000,265.000000) scale(0.100000,-0.100000)"
fill="#000000" stroke="none">
<path d="M956 2514 c-98 -26 -184 -130 -210 -256 -8 -37 -12 -110 -10 -178 3
-112 6 -145 24 -223 l8 -38 -52 -23 c-29 -13 -68 -28 -87 -35 -20 -6 -76 -34
-125 -62 -116 -66 -214 -165 -240 -241 -47 -143 17 -277 191 -395 60 -40 144
-83 164 -83 6 0 11 -4 11 -10 0 -5 3 -9 8 -8 10 2 96 -25 102 -33 3 -3 10 -8
16 -10 7 -3 7 -26 -3 -79 -18 -102 -23 -250 -12 -335 25 -178 141 -295 294
-296 68 -1 197 41 261 85 21 14 42 26 47 26 10 0 67 46 135 107 26 23 52 43
57 43 6 0 36 -21 69 -48 202 -163 293 -206 436 -207 109 0 164 25 220 99 63
83 82 158 82 311 -1 74 -8 165 -16 210 -9 43 -12 82 -8 86 4 4 36 17 72 29
528 183 590 556 130 777 -47 23 -113 51 -148 64 -60 21 -63 24 -57 48 14 55
25 136 27 203 1 28 5 45 11 41 6 -4 7 -1 2 6 -4 7 -9 43 -12 79 -23 342 -261
451 -573 264 -41 -25 -91 -59 -111 -76 -45 -40 -110 -90 -119 -94 -4 -1 -21
10 -38 25 -16 15 -45 39 -62 53 -18 14 -37 30 -44 35 -19 18 -166 105 -166 99
0 -4 -6 -2 -13 4 -46 39 -179 57 -261 36z m169 -29 c108 -28 243 -110 361
-217 l54 -50 62 57 c131 120 293 207 412 221 127 15 241 -65 281 -197 26 -84
27 -297 2 -413 -9 -43 -17 -82 -17 -86 0 -4 30 -17 68 -29 37 -13 112 -44 167
-71 350 -170 387 -421 92 -619 -59 -40 -174 -93 -253 -117 -32 -10 -62 -21
-67 -24 -4 -3 0 -44 10 -91 11 -56 17 -131 17 -229 0 -128 -3 -152 -23 -204
-33 -82 -100 -149 -170 -170 -68 -20 -79 -20 -160 0 -111 28 -246 108 -368
219 l-53 47 -72 -63 c-141 -121 -263 -188 -388 -211 -123 -23 -241 49 -290
177 -32 85 -39 248 -15 387 10 57 18 111 19 121 1 13 -20 24 -89 48 -298 101
-467 278 -426 446 17 68 70 144 140 197 70 54 218 128 314 158 61 18 68 23 63
42 -20 79 -36 213 -36 295 0 202 66 333 187 374 62 20 105 21 178 2z"/>
<path d="M974 2376 c-96 -43 -128 -211 -87 -457 16 -100 16 -100 42 -94 50 13
178 33 249 40 69 7 72 9 99 49 15 22 64 83 107 135 l79 95 -49 43 c-176 157
-349 231 -440 189z m190 -47 c84 -37 256 -166 256 -191 0 -5 -26 -39 -58 -76
-31 -37 -72 -88 -91 -114 -36 -50 -36 -50 -156 -63 -53 -6 -103 -14 -144 -25
-50 -14 -46 -22 -69 135 -10 68 -6 218 7 262 6 23 26 56 43 74 31 31 34 31 98
26 36 -3 87 -16 114 -28z"/>
<path d="M1956 2374 c-62 -20 -162 -81 -248 -150 -100 -82 -98 -74 -36 -146
29 -35 77 -96 107 -135 l55 -71 70 -7 c39 -4 116 -15 170 -26 55 -10 101 -18
101 -16 1 1 10 51 20 111 24 150 18 295 -16 362 -13 26 -36 57 -51 67 -35 26
-111 31 -172 11z m141 -20 c25 -7 59 -55 74 -106 17 -56 10 -290 -10 -366 -8
-28 -11 -29 -81 -17 -19 3 -80 13 -135 21 -73 11 -104 20 -115 33 -8 10 -43
54 -77 97 -33 44 -71 88 -82 98 -20 18 -20 20 -4 39 29 32 144 121 196 151 82
48 171 67 234 50z"/>
<path d="M1475 1988 c-33 -40 -66 -80 -72 -88 -10 -13 7 -15 137 -15 131 0
147 2 136 15 -7 8 -39 47 -71 85 -32 39 -61 71 -64 73 -4 1 -33 -31 -66 -70z
m105 -10 c18 -24 38 -49 43 -56 8 -10 -8 -13 -81 -11 -71 1 -90 4 -84 14 12
21 77 95 83 95 3 0 21 -19 39 -42z"/>
<path d="M1360 1772 l-55 -4 -39 -61 c-50 -79 -147 -250 -171 -301 l-19 -39
58 -113 c32 -62 84 -153 116 -203 l58 -90 119 -3 c65 -2 170 -1 233 2 l114 5
63 100 c34 55 86 145 115 201 l52 100 -63 119 c-34 65 -86 155 -115 200 l-53
82 -84 6 c-85 7 -228 6 -329 -1z m396 -30 c9 -7 60 -86 120 -187 16 -27 45
-81 63 -119 32 -67 32 -70 18 -107 -15 -38 -102 -190 -163 -285 -31 -49 -35
-52 -86 -58 -61 -7 -332 -6 -366 2 -23 4 -86 90 -137 187 -12 22 -38 71 -58
108 -20 38 -37 76 -37 84 0 28 135 270 192 345 l29 37 207 0 c114 0 212 -3
218 -7z"/>
<path d="M1442 1678 c-7 -7 -12 -22 -12 -34 0 -12 -8 -32 -19 -45 -16 -20 -22
-22 -42 -13 -13 6 -37 10 -54 10 -32 -1 -31 4 -20 -88 5 -37 -16 -75 -35 -63
-15 9 -60 -18 -60 -36 0 -10 15 -29 33 -43 l32 -26 -33 -28 c-18 -15 -32 -33
-32 -41 0 -12 2 -12 13 1 6 9 25 24 40 34 l29 17 -4 -29 c-2 -22 -8 -29 -25
-29 -35 -1 -32 -20 4 -23 46 -5 65 -49 50 -115 -14 -63 1 -75 55 -45 32 18 42
20 64 9 14 -6 28 -20 31 -31 3 -11 9 -17 14 -15 10 7 -10 55 -23 55 -4 0 -17
9 -28 20 -21 21 -46 19 -34 -2 5 -7 2 -8 -5 -3 -7 4 -22 -2 -37 -16 -13 -12
-26 -20 -29 -17 -8 8 17 61 32 71 16 10 17 37 2 37 -14 0 -38 30 -39 48 0 9
11 10 39 6 33 -5 41 -3 50 14 17 32 13 50 -14 68 -25 16 -27 16 -55 -11 -17
-16 -30 -27 -30 -24 0 2 -4 19 -10 37 -8 29 -7 32 6 21 17 -14 16 -14 39 30
17 34 17 35 -3 51 -21 17 -15 44 10 46 7 0 21 2 31 2 9 1 17 9 17 18 0 8 5 12
11 8 6 -3 9 -18 6 -32 -8 -40 2 -52 43 -52 29 0 41 6 54 25 15 23 15 25 -6 39
-13 8 -34 17 -48 21 -24 7 -24 7 -5 -9 11 -8 26 -16 33 -16 19 0 11 -45 -8
-45 -14 0 -51 58 -64 101 -5 15 -1 24 10 28 10 4 20 3 23 -2 10 -14 40 -22 57
-15 16 6 38 49 43 83 0 6 6 10 11 10 16 0 11 -42 -7 -63 -17 -18 -17 -20 10
-43 16 -13 38 -24 49 -24 21 0 21 -1 3 -13 -25 -19 -13 -62 23 -81 26 -13 29
-13 40 5 7 10 12 30 12 44 0 14 4 25 8 25 20 0 32 -28 32 -75 0 -64 -35 -138
-92 -195 -34 -33 -46 -40 -70 -36 -44 7 -91 -49 -58 -69 18 -11 11 -27 -10
-22 -11 3 -20 1 -20 -5 0 -5 9 -12 21 -15 12 -4 18 -11 15 -20 -3 -8 -6 -17
-6 -19 0 -2 -7 -4 -16 -4 -8 0 -12 -5 -9 -11 5 -7 13 -5 25 6 13 11 20 13 25
5 5 -8 14 -7 30 4 22 14 24 14 39 -9 9 -14 21 -25 27 -25 5 0 -2 17 -18 38
-15 20 -23 34 -19 30 5 -4 18 -1 30 7 31 22 34 19 28 -30 -6 -58 4 -58 19 0
13 51 31 71 56 60 47 -21 89 -24 86 -8 -2 7 -5 38 -7 68 -4 60 2 69 52 80 48
10 52 33 11 67 l-34 28 33 28 c17 15 32 33 32 39 0 14 -31 32 -63 38 -25 5
-57 40 -57 61 0 8 7 31 15 51 14 33 14 38 -1 54 -15 17 -17 17 -50 -2 -19 -10
-43 -19 -54 -19 -20 0 -25 4 -61 53 -14 18 -25 25 -33 19 -6 -5 -25 -12 -42
-15 -25 -5 -36 -1 -54 19 -27 27 -31 29 -48 12z m43 -51 c31 -55 31 -67 0 -67
-20 0 -25 5 -25 24 0 13 -3 38 -6 55 -9 43 1 39 31 -12z m125 -43 c0 -51 -1
-54 -25 -54 -14 0 -25 3 -25 7 0 22 35 111 42 107 4 -3 8 -30 8 -60z m156 -6
c-20 -28 -20 -70 -1 -109 9 -16 13 -34 10 -39 -4 -6 14 -10 44 -10 65 0 72
-14 16 -30 -25 -7 -48 -17 -51 -21 -11 -19 -23 -7 -29 29 -4 20 -12 51 -18 67
-7 17 -11 33 -10 36 1 4 -9 17 -23 30 l-24 23 47 26 c27 15 50 25 52 24 1 -2
-4 -13 -13 -26z m-372 -47 c8 -12 -20 -34 -33 -27 -5 4 -24 25 -42 47 l-32 41
51 -26 c28 -14 53 -30 56 -35z m276 24 l23 -25 -32 0 c-18 0 -30 4 -26 9 3 5
1 12 -5 16 -5 3 -10 10 -10 16 0 17 26 9 50 -16z m-3 -80 c-2 -42 -4 -45 -28
-45 -27 0 -42 20 -33 43 3 10 50 45 61 47 1 0 1 -20 0 -45z m-337 25 c0 -5 -4
-10 -9 -10 -6 0 -13 5 -16 10 -3 6 1 10 9 10 9 0 16 -4 16 -10z m0 -100 c0
-11 -7 -20 -16 -20 -27 0 -104 22 -104 30 0 4 27 8 60 9 54 1 60 -1 60 -19z
m436 -55 c5 -12 10 -13 20 -4 11 9 14 8 14 -2 0 -8 18 -25 40 -39 22 -14 40
-28 40 -32 0 -12 -73 0 -81 14 -6 9 -9 9 -12 -2 -2 -8 -9 -29 -14 -47 -8 -22
-7 -35 0 -42 18 -18 -5 -13 -41 9 -37 23 -62 26 -62 7 0 -17 29 -56 30 -39 0
6 11 12 25 12 18 0 31 -10 45 -32 26 -43 27 -68 2 -45 -10 10 -22 14 -25 10
-4 -3 -7 -1 -7 6 0 7 -4 10 -9 7 -5 -4 -7 3 -4 14 5 17 -2 15 -53 -15 -32 -19
-69 -35 -82 -35 -23 0 -24 1 -9 18 9 10 14 27 11 38 -4 15 4 28 33 50 21 16
48 40 61 54 19 21 24 23 31 10 5 -8 17 -24 25 -35 16 -19 16 -19 10 10 -3 17
-15 36 -25 44 -22 15 -23 20 -9 55 11 29 37 35 46 11z m-372 -42 c8 -19 -9
-33 -41 -33 -12 0 -33 -4 -47 -10 -37 -14 -32 -5 17 29 49 35 62 38 71 14z
m181 -152 c3 -5 1 -12 -4 -15 -5 -4 -12 -24 -16 -46 -9 -55 -22 -58 -27 -7 -3
23 -8 50 -12 60 -7 14 -3 17 22 17 17 0 33 -4 37 -9z"/>
<path d="M1760 1301 c0 -7 -5 -9 -12 -5 -7 5 -8 3 -3 -5 5 -9 10 -10 18 -2 6
6 8 14 4 18 -4 3 -7 1 -7 -6z"/>
<path d="M1634 1145 c-10 -8 -14 -15 -8 -15 6 0 17 7 24 15 16 19 9 19 -16 0z"/>
<path d="M1579 1383 c-12 -16 -12 -17 2 -6 22 17 58 5 65 -23 3 -13 11 -24 16
-24 5 0 1 15 -9 33 -22 37 -54 46 -74 20z"/>
<path d="M1565 1350 c-11 -18 6 -50 30 -56 30 -7 45 2 45 26 0 13 -5 17 -19
13 -10 -2 -25 3 -34 11 -10 10 -18 12 -22 6z"/>
<path d="M1444 1283 c-9 -32 5 -55 38 -64 21 -5 28 -1 43 23 14 24 15 32 5 41
-10 9 -11 9 -6 0 6 -10 -39 -43 -59 -43 -11 0 -4 34 12 52 15 17 15 18 -5 18
-15 0 -24 -8 -28 -27z"/>
<path d="M1360 1210 c0 -12 17 -12 45 0 17 7 15 9 -12 9 -18 1 -33 -3 -33 -9z"/>
<path d="M1423 1152 c20 -22 57 -36 57 -21 0 5 -8 12 -17 15 -10 3 -27 10 -38
16 -19 11 -20 10 -2 -10z"/>
<path d="M1050 1738 c-58 -11 -107 -21 -109 -24 -6 -5 70 -214 78 -214 3 1 20
28 36 62 17 33 49 90 73 126 23 36 42 67 42 68 0 5 4 6 -120 -18z m57 -31 c-2
-6 -23 -43 -45 -81 l-40 -69 -17 39 c-25 58 -34 93 -26 98 4 3 23 8 42 11 18
3 34 7 36 8 1 2 14 4 28 5 18 1 26 -2 22 -11z"/>
<path d="M1910 1751 c0 -5 4 -12 9 -16 12 -7 131 -213 131 -226 0 -5 4 -9 8
-9 7 0 82 194 82 211 0 4 -44 14 -97 24 -54 9 -106 19 -115 21 -10 3 -18 1
-18 -5z m141 -46 c16 -2 34 -7 40 -11 12 -7 2 -66 -13 -75 -5 -3 -9 -9 -9 -13
8 -56 -13 -45 -58 31 -41 71 -43 88 -10 78 11 -4 33 -8 50 -10z"/>
<path d="M734 1655 c-175 -62 -299 -147 -338 -230 -41 -85 8 -172 145 -258 91
-58 288 -134 294 -113 12 44 82 229 101 266 20 41 21 48 7 73 -19 38 -103 259
-103 274 0 23 -15 21 -106 -12z m85 -23 c5 -10 20 -49 34 -87 14 -39 36 -95
50 -125 24 -54 24 -57 8 -90 -19 -41 -64 -158 -81 -212 -6 -21 -15 -38 -18
-38 -18 0 -106 31 -118 41 -8 6 -14 9 -14 5 0 -9 -124 54 -128 65 -2 5 -10 9
-17 9 -8 0 -36 23 -64 51 -51 51 -67 95 -56 148 5 29 52 90 80 105 11 6 23 15
26 19 12 16 145 83 212 107 66 24 74 24 86 2z"/>
<path d="M2245 1677 c-3 -6 -20 -55 -39 -107 -19 -52 -45 -120 -58 -150 l-24
-55 27 -60 c15 -33 41 -100 58 -150 17 -49 33 -95 35 -101 3 -8 31 -2 87 17
193 69 334 169 360 256 10 36 9 49 -5 87 -34 89 -164 180 -349 245 -64 22 -89
27 -92 18z m139 -63 c198 -79 296 -171 283 -265 -11 -85 -142 -185 -321 -245
-79 -27 -87 -24 -105 38 -7 24 -31 85 -52 136 -37 85 -38 94 -25 120 7 15 28
65 46 112 17 47 36 97 42 113 6 15 17 27 25 27 9 0 57 -16 107 -36z"/>
<path d="M976 1129 c-21 -60 -37 -111 -35 -113 7 -6 229 -43 229 -38 0 3 -6
13 -14 21 -18 20 -126 210 -126 221 0 5 -4 11 -8 14 -5 3 -25 -45 -46 -105z
m92 -36 c23 -42 41 -77 40 -79 -6 -5 -113 18 -122 27 -9 8 23 129 34 129 3 0
24 -34 48 -77z"/>
<path d="M2015 1154 c-27 -49 -61 -108 -77 -131 -15 -23 -28 -43 -28 -45 0 -2
52 5 115 16 63 11 115 22 115 26 0 4 -17 55 -38 115 l-39 108 -48 -89z m74
-54 c11 -30 17 -58 13 -62 -8 -8 -132 -28 -132 -21 0 16 84 153 91 146 4 -4
17 -33 28 -63z"/>
<path d="M885 801 c-24 -153 -19 -298 15 -365 46 -91 104 -112 219 -77 76 23
211 108 294 186 l48 44 -73 88 c-40 48 -88 109 -106 134 l-33 46 -97 12 c-53
7 -128 19 -165 27 -38 8 -72 14 -76 14 -5 0 -16 -49 -26 -109z m121 64 c62
-13 98 -18 197 -29 30 -4 48 -19 87 -76 26 -39 31 -44 89 -111 23 -25 41 -51
41 -56 0 -11 -108 -101 -177 -147 -107 -72 -234 -94 -284 -51 -41 37 -62 102
-65 200 -2 98 23 285 38 285 2 0 35 -7 74 -15z"/>
<path d="M2085 895 c-33 -7 -104 -19 -158 -26 l-97 -12 -35 -48 c-28 -39 -98
-125 -164 -203 -15 -17 -13 -20 24 -53 190 -163 332 -231 431 -204 80 21 114
88 122 234 3 67 -1 134 -13 212 -20 129 -12 121 -110 100z m77 -60 c30 -161
27 -328 -7 -394 -8 -16 -29 -39 -46 -52 -75 -53 -248 15 -415 164 l-43 39 56
66 c70 84 82 99 116 145 18 23 36 37 50 36 27 0 157 18 212 30 61 13 69 10 77
-34z"/>
<path d="M1401 833 c9 -10 39 -47 69 -83 30 -36 57 -69 61 -74 4 -5 19 4 32
20 14 16 48 57 77 92 l52 62 -153 0 c-144 0 -151 -1 -138 -17z m208 -43 c-10
-14 -30 -38 -44 -55 l-26 -30 -25 30 c-14 17 -34 42 -44 56 l-20 27 89 -2 89
-1 -19 -25z"/>
</g>
</svg>
